<svg width="128" height="25" viewBox="0 0 128 25" fill="none" xmlns="http://www.w3.org/2000/svg">
<path d="M6.62229 14.6986H3.01065V13.2409H6.62229C7.32171 13.2409 7.88806 13.1295 8.32134 12.9067C8.75461 12.6839 9.07028 12.3744 9.26835 11.9783C9.4726 11.5821 9.57473 11.1303 9.57473 10.6227C9.57473 10.1585 9.4726 9.72215 9.26835 9.31363C9.07028 8.90512 8.75461 8.57707 8.32134 8.32948C7.88806 8.07571 7.32171 7.94882 6.62229 7.94882H3.42845V20H1.63655V6.48188H6.62229C7.64357 6.48188 8.50702 6.65829 9.21264 7.0111C9.91826 7.3639 10.4537 7.85288 10.8188 8.47803C11.184 9.097 11.3666 9.80571 11.3666 10.6042C11.3666 11.4707 11.184 12.2104 10.8188 12.8231C10.4537 13.4359 9.91826 13.9032 9.21264 14.2251C8.50702 14.5408 7.64357 14.6986 6.62229 14.6986ZM17.4108 20.1857C16.7114 20.1857 16.0769 20.0681 15.5075 19.8329C14.9442 19.5915 14.4583 19.2542 14.0498 18.8209C13.6475 18.3876 13.338 17.8739 13.1214 17.2797C12.9047 16.6855 12.7964 16.0356 12.7964 15.3299V14.94C12.7964 14.123 12.9171 13.3957 13.1585 12.7582C13.3999 12.1144 13.728 11.5697 14.1427 11.1241C14.5574 10.6784 15.0278 10.3411 15.5539 10.1121C16.08 9.88308 16.6247 9.76857 17.188 9.76857C17.906 9.76857 18.5249 9.89236 19.0448 10.1399C19.571 10.3875 20.0011 10.7341 20.3354 11.1798C20.6696 11.6193 20.9172 12.1392 21.0781 12.7396C21.2391 13.3338 21.3195 13.9837 21.3195 14.6893V15.4599H13.8177V14.058H19.6019V13.928C19.5771 13.4823 19.4843 13.0491 19.3234 12.6282C19.1686 12.2073 18.921 11.8607 18.5806 11.5883C18.2402 11.316 17.776 11.1798 17.188 11.1798C16.798 11.1798 16.439 11.2634 16.111 11.4305C15.7829 11.5914 15.5013 11.8328 15.2661 12.1547C15.0309 12.4765 14.8483 12.8696 14.7183 13.3338C14.5883 13.798 14.5233 14.3334 14.5233 14.94V15.3299C14.5233 15.8065 14.5883 16.2553 14.7183 16.6762C14.8545 17.0909 15.0494 17.4561 15.3032 17.7717C15.5632 18.0874 15.8758 18.335 16.2409 18.5145C16.6123 18.694 17.0332 18.7837 17.5036 18.7837C18.1102 18.7837 18.6239 18.6599 19.0448 18.4124C19.4657 18.1648 19.834 17.8336 20.1497 17.4189L21.1895 18.2452C20.9729 18.5733 20.6975 18.8859 20.3632 19.183C20.029 19.4801 19.6174 19.7215 19.1284 19.9072C18.6456 20.0928 18.0731 20.1857 17.4108 20.1857ZM27.5308 9.95426V11.2726H22.0994V9.95426H27.5308ZM23.9377 7.51246H25.6553V17.5118C25.6553 17.8522 25.708 18.1091 25.8132 18.2824C25.9184 18.4557 26.0546 18.5702 26.2217 18.6259C26.3888 18.6816 26.5683 18.7095 26.7602 18.7095C26.9026 18.7095 27.0511 18.6971 27.2058 18.6723C27.3668 18.6414 27.4875 18.6166 27.5679 18.5981L27.5772 20C27.441 20.0433 27.2616 20.0836 27.0387 20.1207C26.8221 20.164 26.559 20.1857 26.2495 20.1857C25.8287 20.1857 25.4418 20.1021 25.089 19.935C24.7362 19.7679 24.4546 19.4894 24.2441 19.0994C24.0399 18.7033 23.9377 18.171 23.9377 17.5025V7.51246ZM37.0102 16.5833C37.0102 16.2677 36.9607 15.9891 36.8616 15.7477C36.7688 15.5002 36.6017 15.2773 36.3603 15.0793C36.1251 14.8812 35.797 14.6924 35.3761 14.5129C34.9614 14.3334 34.4353 14.1508 33.7978 13.9651C33.1293 13.7671 32.5258 13.5473 31.9873 13.3059C31.4488 13.0583 30.9877 12.7767 30.6039 12.4611C30.2202 12.1454 29.9262 11.7833 29.7219 11.3748C29.5177 10.9663 29.4155 10.4989 29.4155 9.97283C29.4155 9.44671 29.5239 8.96082 29.7405 8.51517C29.9571 8.06952 30.2666 7.68267 30.6689 7.35462C31.0774 7.02038 31.5633 6.76042 32.1266 6.57473C32.6898 6.38904 33.3181 6.2962 34.0113 6.2962C35.0264 6.2962 35.8868 6.49117 36.5924 6.88111C37.3042 7.26487 37.8458 7.76932 38.2172 8.39448C38.5885 9.01344 38.7742 9.67573 38.7742 10.3813H36.9916C36.9916 9.87379 36.8833 9.42505 36.6667 9.0351C36.45 8.63896 36.122 8.32948 35.6825 8.10666C35.2431 7.87764 34.686 7.76313 34.0113 7.76313C33.3738 7.76313 32.8477 7.85907 32.433 8.05095C32.0183 8.24283 31.7088 8.50279 31.5045 8.83084C31.3065 9.15889 31.2074 9.53336 31.2074 9.95426C31.2074 10.239 31.2662 10.4989 31.3838 10.7341C31.5076 10.9632 31.6964 11.1767 31.9502 11.3748C32.2101 11.5728 32.5382 11.7554 32.9343 11.9226C33.3367 12.0897 33.8164 12.2506 34.3734 12.4053C35.1409 12.622 35.8032 12.8634 36.3603 13.1295C36.9173 13.3957 37.3754 13.6959 37.7344 14.0301C38.0996 14.3582 38.3688 14.7326 38.5421 15.1535C38.7216 15.5682 38.8114 16.0386 38.8114 16.5648C38.8114 17.1156 38.7 17.6139 38.4771 18.0596C38.2543 18.5052 37.9355 18.8859 37.5208 19.2015C37.1061 19.5172 36.6079 19.7617 36.026 19.935C35.4504 20.1021 34.8067 20.1857 34.0949 20.1857C33.4697 20.1857 32.8539 20.099 32.2473 19.9257C31.6469 19.7524 31.0991 19.4925 30.6039 19.1458C30.115 18.7992 29.7219 18.3721 29.4248 17.8646C29.1339 17.3508 28.9885 16.7566 28.9885 16.082H30.7711C30.7711 16.5462 30.8608 16.9454 31.0403 17.2797C31.2198 17.6077 31.4643 17.8801 31.7738 18.0967C32.0895 18.3133 32.4454 18.4743 32.8415 18.5795C33.2438 18.6785 33.6616 18.728 34.0949 18.728C34.72 18.728 35.2492 18.6414 35.6825 18.4681C36.1158 18.2948 36.4438 18.0472 36.6667 17.7253C36.8957 17.4035 37.0102 17.0228 37.0102 16.5833ZM45.0412 9.95426V11.2726H39.6098V9.95426H45.0412ZM41.4481 7.51246H43.1658V17.5118C43.1658 17.8522 43.2184 18.1091 43.3236 18.2824C43.4288 18.4557 43.565 18.5702 43.7321 18.6259C43.8992 18.6816 44.0787 18.7095 44.2706 18.7095C44.413 18.7095 44.5615 18.6971 44.7163 18.6723C44.8772 18.6414 44.9979 18.6166 45.0784 18.5981L45.0876 20C44.9515 20.0433 44.772 20.0836 44.5491 20.1207C44.3325 20.164 44.0694 20.1857 43.76 20.1857C43.3391 20.1857 42.9522 20.1021 42.5994 19.935C42.2466 19.7679 41.965 19.4894 41.7545 19.0994C41.5503 18.7033 41.4481 18.171 41.4481 17.5025V7.51246ZM46.4153 15.0885V14.875C46.4153 14.1508 46.5205 13.4792 46.731 12.8603C46.9414 12.2351 47.2447 11.6935 47.6409 11.2355C48.037 10.7713 48.5167 10.4123 49.0799 10.1585C49.6432 9.89855 50.2745 9.76857 50.974 9.76857C51.6796 9.76857 52.314 9.89855 52.8773 10.1585C53.4467 10.4123 53.9295 10.7713 54.3256 11.2355C54.728 11.6935 55.0343 12.2351 55.2448 12.8603C55.4552 13.4792 55.5605 14.1508 55.5605 14.875V15.0885C55.5605 15.8127 55.4552 16.4843 55.2448 17.1033C55.0343 17.7222 54.728 18.2638 54.3256 18.728C53.9295 19.1861 53.4498 19.5451 52.8866 19.805C52.3295 20.0588 51.6981 20.1857 50.9925 20.1857C50.2869 20.1857 49.6525 20.0588 49.0892 19.805C48.526 19.5451 48.0432 19.1861 47.6409 18.728C47.2447 18.2638 46.9414 17.7222 46.731 17.1033C46.5205 16.4843 46.4153 15.8127 46.4153 15.0885ZM48.1329 14.875V15.0885C48.1329 15.5899 48.1917 16.0634 48.3093 16.5091C48.4269 16.9485 48.6033 17.3385 48.8385 17.6789C49.0799 18.0193 49.3801 18.2886 49.7391 18.4866C50.0981 18.6785 50.5159 18.7745 50.9925 18.7745C51.4629 18.7745 51.8746 18.6785 52.2274 18.4866C52.5864 18.2886 52.8835 18.0193 53.1187 17.6789C53.3539 17.3385 53.5303 16.9485 53.6479 16.5091C53.7717 16.0634 53.8336 15.5899 53.8336 15.0885V14.875C53.8336 14.3798 53.7717 13.9125 53.6479 13.4731C53.5303 13.0274 53.3508 12.6344 53.1094 12.2939C52.8742 11.9473 52.5771 11.675 52.2181 11.4769C51.8653 11.2788 51.4506 11.1798 50.974 11.1798C50.5036 11.1798 50.0888 11.2788 49.7299 11.4769C49.377 11.675 49.0799 11.9473 48.8385 12.2939C48.6033 12.6344 48.4269 13.0274 48.3093 13.4731C48.1917 13.9125 48.1329 14.3798 48.1329 14.875ZM59.4321 11.5326V20H57.7144V9.95426H59.3856L59.4321 11.5326ZM62.5702 9.89855L62.5609 11.4955C62.4186 11.4645 62.2824 11.446 62.1524 11.4398C62.0286 11.4274 61.8862 11.4212 61.7253 11.4212C61.3292 11.4212 60.9795 11.4831 60.6762 11.6069C60.3729 11.7307 60.116 11.904 59.9056 12.1268C59.6951 12.3496 59.528 12.6158 59.4042 12.9253C59.2866 13.2286 59.2092 13.5628 59.1721 13.928L58.6893 14.2065C58.6893 13.5999 58.7481 13.0305 58.8657 12.4982C58.9895 11.9659 59.1783 11.4955 59.4321 11.087C59.6858 10.6723 60.0077 10.3504 60.3976 10.1214C60.7938 9.88617 61.2642 9.76857 61.8089 9.76857C61.9327 9.76857 62.075 9.78404 62.236 9.81499C62.3969 9.83975 62.5083 9.8676 62.5702 9.89855ZM67.1474 18.9601L69.942 9.95426H71.7803L67.7509 21.5505C67.6581 21.7981 67.5343 22.0642 67.3795 22.349C67.231 22.6399 67.0391 22.9153 66.8039 23.1753C66.5687 23.4352 66.284 23.6457 65.9497 23.8066C65.6217 23.9737 65.2286 24.0573 64.7706 24.0573C64.6344 24.0573 64.4611 24.0387 64.2507 24.0016C64.0402 23.9644 63.8917 23.9335 63.805 23.9087L63.7957 22.5161C63.8453 22.5223 63.9226 22.5285 64.0279 22.5346C64.1393 22.547 64.2166 22.5532 64.26 22.5532C64.6499 22.5532 64.9811 22.5006 65.2534 22.3954C65.5257 22.2963 65.7548 22.1261 65.9404 21.8847C66.1323 21.6495 66.2963 21.3246 66.4325 20.9099L67.1474 18.9601ZM65.0956 9.95426L67.7045 17.7532L68.1501 19.5636L66.9153 20.195L63.2201 9.95426H65.0956ZM77.5924 15.0885V14.875C77.5924 14.1508 77.6976 13.4792 77.9081 12.8603C78.1185 12.2351 78.4218 11.6935 78.8179 11.2355C79.2141 10.7713 79.6938 10.4123 80.257 10.1585C80.8203 9.89855 81.4516 9.76857 82.151 9.76857C82.8567 9.76857 83.4911 9.89855 84.0543 10.1585C84.6238 10.4123 85.1066 10.7713 85.5027 11.2355C85.905 11.6935 86.2114 12.2351 86.4219 12.8603C86.6323 13.4792 86.7375 14.1508 86.7375 14.875V15.0885C86.7375 15.8127 86.6323 16.4843 86.4219 17.1033C86.2114 17.7222 85.905 18.2638 85.5027 18.728C85.1066 19.1861 84.6269 19.5451 84.0636 19.805C83.5066 20.0588 82.8752 20.1857 82.1696 20.1857C81.464 20.1857 80.8296 20.0588 80.2663 19.805C79.703 19.5451 79.2203 19.1861 78.8179 18.728C78.4218 18.2638 78.1185 17.7222 77.9081 17.1033C77.6976 16.4843 77.5924 15.8127 77.5924 15.0885ZM79.31 14.875V15.0885C79.31 15.5899 79.3688 16.0634 79.4864 16.5091C79.604 16.9485 79.7804 17.3385 80.0156 17.6789C80.257 18.0193 80.5572 18.2886 80.9162 18.4866C81.2752 18.6785 81.693 18.7745 82.1696 18.7745C82.64 18.7745 83.0516 18.6785 83.4044 18.4866C83.7634 18.2886 84.0605 18.0193 84.2957 17.6789C84.5309 17.3385 84.7073 16.9485 84.8249 16.5091C84.9487 16.0634 85.0106 15.5899 85.0106 15.0885V14.875C85.0106 14.3798 84.9487 13.9125 84.8249 13.4731C84.7073 13.0274 84.5278 12.6344 84.2865 12.2939C84.0512 11.9473 83.7541 11.675 83.3951 11.4769C83.0423 11.2788 82.6276 11.1798 82.151 11.1798C81.6806 11.1798 81.2659 11.2788 80.9069 11.4769C80.5541 11.675 80.257 11.9473 80.0156 12.2939C79.7804 12.6344 79.604 13.0274 79.4864 13.4731C79.3688 13.9125 79.31 14.3798 79.31 14.875ZM90.6091 12.099V20H88.8915V9.95426H90.5163L90.6091 12.099ZM90.2006 14.5965L89.4857 14.5686C89.4919 13.8816 89.5941 13.2471 89.7921 12.6653C89.9902 12.0773 90.2687 11.5667 90.6277 11.1334C90.9867 10.7001 91.4138 10.3659 91.909 10.1307C92.4103 9.88927 92.9643 9.76857 93.5709 9.76857C94.066 9.76857 94.5117 9.83665 94.9078 9.97283C95.304 10.1028 95.6413 10.3133 95.9198 10.6042C96.2046 10.8951 96.4212 11.2726 96.5697 11.7369C96.7183 12.1949 96.7926 12.7551 96.7926 13.4173V20H95.0657V13.3988C95.0657 12.8727 94.9883 12.4518 94.8336 12.1361C94.6788 11.8142 94.4529 11.5821 94.1558 11.4398C93.8587 11.2912 93.4935 11.2169 93.0602 11.2169C92.6332 11.2169 92.2432 11.3067 91.8904 11.4862C91.5438 11.6657 91.2436 11.9133 90.9898 12.2289C90.7422 12.5446 90.5473 12.9067 90.4049 13.3152C90.2687 13.7175 90.2006 14.1446 90.2006 14.5965ZM101.268 5.73913V20H99.5408V5.73913H101.268ZM105.891 9.95426V20H104.164V9.95426H105.891ZM104.034 7.28963C104.034 7.0111 104.118 6.77589 104.285 6.58401C104.458 6.39214 104.712 6.2962 105.046 6.2962C105.374 6.2962 105.625 6.39214 105.798 6.58401C105.978 6.77589 106.068 7.0111 106.068 7.28963C106.068 7.55578 105.978 7.7848 105.798 7.97668C105.625 8.16236 105.374 8.25521 105.046 8.25521C104.712 8.25521 104.458 8.16236 104.285 7.97668C104.118 7.7848 104.034 7.55578 104.034 7.28963ZM110.366 12.099V20H108.649V9.95426H110.274L110.366 12.099ZM109.958 14.5965L109.243 14.5686C109.249 13.8816 109.351 13.2471 109.549 12.6653C109.747 12.0773 110.026 11.5667 110.385 11.1334C110.744 10.7001 111.171 10.3659 111.666 10.1307C112.168 9.88927 112.722 9.76857 113.328 9.76857C113.823 9.76857 114.269 9.83665 114.665 9.97283C115.061 10.1028 115.399 10.3133 115.677 10.6042C115.962 10.8951 116.178 11.2726 116.327 11.7369C116.476 12.1949 116.55 12.7551 116.55 13.4173V20H114.823V13.3988C114.823 12.8727 114.746 12.4518 114.591 12.1361C114.436 11.8142 114.21 11.5821 113.913 11.4398C113.616 11.2912 113.251 11.2169 112.817 11.2169C112.39 11.2169 112 11.3067 111.648 11.4862C111.301 11.6657 111.001 11.9133 110.747 12.2289C110.499 12.5446 110.305 12.9067 110.162 13.3152C110.026 13.7175 109.958 14.1446 109.958 14.5965ZM123.327 20.1857C122.628 20.1857 121.994 20.0681 121.424 19.8329C120.861 19.5915 120.375 19.2542 119.966 18.8209C119.564 18.3876 119.255 17.8739 119.038 17.2797C118.821 16.6855 118.713 16.0356 118.713 15.3299V14.94C118.713 14.123 118.834 13.3957 119.075 12.7582C119.317 12.1144 119.645 11.5697 120.059 11.1241C120.474 10.6784 120.944 10.3411 121.471 10.1121C121.997 9.88308 122.541 9.76857 123.105 9.76857C123.823 9.76857 124.442 9.89236 124.962 10.1399C125.488 10.3875 125.918 10.7341 126.252 11.1798C126.586 11.6193 126.834 12.1392 126.995 12.7396C127.156 13.3338 127.236 13.9837 127.236 14.6893V15.4599H119.734V14.058H125.519V13.928C125.494 13.4823 125.401 13.0491 125.24 12.6282C125.085 12.2073 124.838 11.8607 124.497 11.5883C124.157 11.316 123.693 11.1798 123.105 11.1798C122.715 11.1798 122.356 11.2634 122.028 11.4305C121.7 11.5914 121.418 11.8328 121.183 12.1547C120.948 12.4765 120.765 12.8696 120.635 13.3338C120.505 13.798 120.44 14.3334 120.44 14.94V15.3299C120.44 15.8065 120.505 16.2553 120.635 16.6762C120.771 17.0909 120.966 17.4561 121.22 17.7717C121.48 18.0874 121.792 18.335 122.158 18.5145C122.529 18.694 122.95 18.7837 123.42 18.7837C124.027 18.7837 124.541 18.6599 124.962 18.4124C125.382 18.1648 125.751 17.8336 126.066 17.4189L127.106 18.2452C126.89 18.5733 126.614 18.8859 126.28 19.183C125.946 19.4801 125.534 19.7215 125.045 19.9072C124.562 20.0928 123.99 20.1857 123.327 20.1857Z" fill="white"/>
<mask id="path-3-inside-1_37702_666" fill="white">
<path fill-rule="evenodd" clip-rule="evenodd" d="M80.6722 15.8416C80.8526 16.2365 80.8526 16.2365 80.6722 15.8416V15.8416V15.8416ZM82.7452 19.4703C83.0314 19.3066 83.3067 18.577 83.1618 18.2818C82.6566 17.2522 82.2853 16.1461 81.9254 15.0335C81.8594 14.8294 81.7633 14.6268 81.5874 14.5253C81.3679 14.3985 81.1704 14.4394 80.9792 14.5281C80.8247 14.5998 80.6894 14.714 80.5553 14.8254C80.1471 15.1646 79.8137 15.3154 80.0346 15.6236C80.159 15.7974 80.3172 15.9417 80.4266 16.1272C81.0245 17.1411 81.4855 18.1126 81.8449 19.1189C81.9812 19.5004 82.3963 19.6698 82.7452 19.4703V19.4703V19.4703ZM78.514 11.1154C78.6943 11.5103 78.6943 11.5103 78.514 11.1154V11.1154V11.1154ZM77.8499 9.66124V9.66124C77.6827 8.83985 76.8537 7.47994 76.3557 6.3893C76.8537 7.47994 77.2688 8.38882 77.9329 9.84301L77.8499 9.66124V9.66124ZM78.5096 9.90285C78.7412 9.59363 78.9872 9.10745 78.8212 8.77386C78.3674 7.86236 77.9987 6.79339 77.6069 5.62867C77.4884 5.27633 77.2685 4.8907 76.9191 4.9745C76.8333 4.99508 76.7475 5.0308 76.6618 5.07359C76.5089 5.14985 76.3729 5.26174 76.2388 5.37317C75.8248 5.71711 75.4878 5.86731 75.7277 6.18448C75.8497 6.34579 75.9992 6.48299 76.1045 6.65779C76.6778 7.60896 77.1936 8.71272 77.5726 9.79526C77.6828 10.11 78.0247 10.249 78.3117 10.0849C78.318 10.0813 78.3241 10.0778 78.3302 10.0743C78.395 10.0373 78.4634 9.96455 78.5096 9.90285V9.90285ZM75.7746 5.11688C75.7195 4.99611 75.68 4.86771 75.6424 4.73858C75.4002 3.9083 74.6576 2.67081 74.1974 1.66316C74.6955 2.75381 75.1105 3.66268 75.7746 5.11688V5.11688ZM76.3528 5.01687C76.6487 4.85553 76.8538 4.42429 76.7015 4.12442C76.2299 3.19641 75.8514 2.10009 75.4487 0.902539C75.3302 0.550197 75.1103 0.164566 74.7609 0.248368C74.675 0.268951 74.5893 0.304661 74.5035 0.347454C74.3507 0.423717 74.2156 0.537548 74.0765 0.641465C73.6139 0.987222 73.2077 1.02765 73.6294 1.50869C73.7274 1.62046 73.8257 1.73376 73.9043 1.86245C74.5008 2.83967 75.0378 3.9851 75.4271 5.10567C75.5298 5.40136 75.8788 5.55957 76.0789 5.30963C76.0878 5.29841 76.0965 5.28697 76.1048 5.27532C76.173 5.17925 76.2531 5.07126 76.3528 5.01687V5.01687ZM76.7775 10.0452C76.1167 9.96449 75.6209 9.78952 74.9602 9.70883C75.6209 9.78952 76.0337 9.78272 76.7775 10.0452C76.6926 10.0152 76.6095 9.98591 76.528 9.95724C76.3191 9.88376 76.3207 9.884 76.5296 9.95769V9.95769C75.4549 9.42597 74.5463 9.25779 73.7195 8.81355C74.4633 9.07602 75.207 9.33848 76.2816 9.87021C75.3719 9.24419 74.3802 8.89424 73.3886 8.54429C74.3802 8.89424 75.4549 9.42597 76.7775 10.0452C77.0254 10.1327 77.0254 10.1327 76.7775 10.0452ZM76.4477 10.2338L76.1998 10.1463V10.1463V10.1463C76.0627 10.1485 75.9277 10.1496 75.7947 10.1499C75.3369 10.1511 75.3291 10.2029 75.7869 10.1531V10.1531V10.1531C75.4392 10.1909 75.4453 10.3045 75.793 10.2668C75.8736 10.2581 75.9542 10.2493 76.0349 10.2406C75.2092 10.2542 74.4666 10.4495 73.724 10.6449C74.0159 10.6131 74.2863 10.5737 74.5436 10.5336C74.7019 10.5089 74.7077 10.6036 74.5496 10.6313V10.6313C75.1273 10.5302 75.7051 10.4291 76.2828 10.328V10.328C76.4477 10.2338 76.4477 10.2338 76.4477 10.2338ZM76.9457 11.3244C76.6159 11.513 76.3691 11.8833 75.8744 12.1662C76.2042 11.9776 76.451 11.6073 76.9457 11.3244C76.451 11.6073 75.8744 12.1662 75.3797 12.449C75.8744 12.1662 76.2861 11.7015 76.7808 11.4187C76.1212 11.7958 75.4616 12.173 74.885 12.7319C75.2967 12.2673 75.9563 11.8901 76.6159 11.513C75.9563 11.8901 75.2967 12.2673 74.6371 12.6444C75.2967 12.2673 76.0382 11.6141 76.8627 11.1426C77.0276 11.0483 77.1106 11.2301 76.9457 11.3244ZM77.0287 11.5062V11.5062C76.9199 11.5684 76.8224 11.6526 76.7431 11.7549C76.1447 12.5271 75.6914 13.2163 75.3831 13.8225C75.4095 13.7707 75.4369 13.7183 75.4652 13.6654C75.6216 13.3738 75.6981 13.4331 75.548 13.7283V13.7283C75.8767 13.0819 76.3703 12.3412 76.6989 11.6947C76.3703 12.3412 76.2065 12.8933 75.9597 13.2636C76.1133 13.0331 76.2986 12.6956 76.496 12.3177C76.5409 12.2316 76.563 12.3535 76.5213 12.4413V12.4413C76.4821 12.5237 76.5431 12.4412 76.5708 12.3541C76.6473 12.1129 76.7026 11.8641 76.8367 11.6432C76.8539 11.6147 76.8784 11.5922 76.9062 11.5763L77.0287 11.5062ZM77.4404 11.0415C77.4502 11.036 77.4594 11.0307 77.4681 11.0257C77.635 10.9303 77.7876 10.9981 77.9568 11.0689V11.0689C78.0229 11.0966 78.1222 11.1566 78.1605 11.2202C78.8372 12.343 79.3453 13.4089 79.7318 14.5209C79.8413 14.8359 80.183 14.9751 80.47 14.811C80.4763 14.8074 80.4824 14.8039 80.4885 14.8004C80.5532 14.7634 80.6217 14.6907 80.6679 14.629V14.629C80.8995 14.3198 81.1455 13.8336 80.9794 13.5C80.5257 12.5885 80.1569 11.5195 79.7652 10.3548C79.6467 10.0025 79.4268 9.61683 79.0774 9.70064C78.9377 9.73413 78.7982 9.8077 78.6586 9.88666C78.6155 9.91104 78.5766 9.9437 78.5414 9.98028C78.4143 10.1123 78.2885 10.2035 78.1738 10.2754C77.9792 10.3973 77.3683 10.4283 77.2733 10.2202V10.2202C77.2061 10.0731 77.0311 9.98778 76.7476 9.7218C76.5974 9.58098 76.4362 9.45294 76.252 9.3679C75.4742 9.0089 74.4596 8.63332 73.6416 8.3942C73.3084 8.29677 72.9473 8.42913 73.2237 8.64492V8.64492C73.5923 8.93268 73.603 9.93191 73.1414 10.0366C73.0884 10.0486 73.0359 10.0614 72.9842 10.0748C72.6261 10.1678 72.6272 10.5638 72.9863 10.61C74.1984 10.7658 76.1318 10.6411 76.8848 10.4264C76.9248 10.415 76.962 10.3959 77.0026 10.388C77.0138 10.3858 77.0262 10.3843 77.0392 10.3843C77.167 10.3843 77.2588 10.5176 77.3768 10.5641C77.401 10.5736 77.4247 10.5834 77.4479 10.5935C77.6593 10.686 77.6282 10.9826 77.3956 10.9886V10.9886C77.2802 10.9916 77.1337 10.9877 77.0295 11.0472C76.9684 11.0822 76.89 11.127 76.7945 11.1817C76.7303 11.2184 76.6629 11.2474 76.5944 11.272C75.8802 11.5286 75.082 12.0997 74.5091 12.5933C74.3404 12.7386 74.2657 12.9779 74.4758 12.951V12.951C74.7953 12.9099 75.3998 13.4837 75.2346 13.788V13.788C75.1133 14.0113 75.3048 14.1216 75.4862 13.9508C76.0763 13.3951 76.7528 12.3047 77.0089 11.6116C77.0945 11.3799 77.2351 11.159 77.4404 11.0415V11.0415Z"/>
</mask>
<path fill-rule="evenodd" clip-rule="evenodd" d="M80.6722 15.8416C80.8526 16.2365 80.8526 16.2365 80.6722 15.8416V15.8416V15.8416ZM82.7452 19.4703C83.0314 19.3066 83.3067 18.577 83.1618 18.2818C82.6566 17.2522 82.2853 16.1461 81.9254 15.0335C81.8594 14.8294 81.7633 14.6268 81.5874 14.5253C81.3679 14.3985 81.1704 14.4394 80.9792 14.5281C80.8247 14.5998 80.6894 14.714 80.5553 14.8254C80.1471 15.1646 79.8137 15.3154 80.0346 15.6236C80.159 15.7974 80.3172 15.9417 80.4266 16.1272C81.0245 17.1411 81.4855 18.1126 81.8449 19.1189C81.9812 19.5004 82.3963 19.6698 82.7452 19.4703V19.4703V19.4703ZM78.514 11.1154C78.6943 11.5103 78.6943 11.5103 78.514 11.1154V11.1154V11.1154ZM77.8499 9.66124V9.66124C77.6827 8.83985 76.8537 7.47994 76.3557 6.3893C76.8537 7.47994 77.2688 8.38882 77.9329 9.84301L77.8499 9.66124V9.66124ZM78.5096 9.90285C78.7412 9.59363 78.9872 9.10745 78.8212 8.77386C78.3674 7.86236 77.9987 6.79339 77.6069 5.62867C77.4884 5.27633 77.2685 4.8907 76.9191 4.9745C76.8333 4.99508 76.7475 5.0308 76.6618 5.07359C76.5089 5.14985 76.3729 5.26174 76.2388 5.37317C75.8248 5.71711 75.4878 5.86731 75.7277 6.18448C75.8497 6.34579 75.9992 6.48299 76.1045 6.65779C76.6778 7.60896 77.1936 8.71272 77.5726 9.79526C77.6828 10.11 78.0247 10.249 78.3117 10.0849C78.318 10.0813 78.3241 10.0778 78.3302 10.0743C78.395 10.0373 78.4634 9.96455 78.5096 9.90285V9.90285ZM75.7746 5.11688C75.7195 4.99611 75.68 4.86771 75.6424 4.73858C75.4002 3.9083 74.6576 2.67081 74.1974 1.66316C74.6955 2.75381 75.1105 3.66268 75.7746 5.11688V5.11688ZM76.3528 5.01687C76.6487 4.85553 76.8538 4.42429 76.7015 4.12442C76.2299 3.19641 75.8514 2.10009 75.4487 0.902539C75.3302 0.550197 75.1103 0.164566 74.7609 0.248368C74.675 0.268951 74.5893 0.304661 74.5035 0.347454C74.3507 0.423717 74.2156 0.537548 74.0765 0.641465C73.6139 0.987222 73.2077 1.02765 73.6294 1.50869C73.7274 1.62046 73.8257 1.73376 73.9043 1.86245C74.5008 2.83967 75.0378 3.9851 75.4271 5.10567C75.5298 5.40136 75.8788 5.55957 76.0789 5.30963C76.0878 5.29841 76.0965 5.28697 76.1048 5.27532C76.173 5.17925 76.2531 5.07126 76.3528 5.01687V5.01687ZM76.7775 10.0452C76.1167 9.96449 75.6209 9.78952 74.9602 9.70883C75.6209 9.78952 76.0337 9.78272 76.7775 10.0452C76.6926 10.0152 76.6095 9.98591 76.528 9.95724C76.3191 9.88376 76.3207 9.884 76.5296 9.95769V9.95769C75.4549 9.42597 74.5463 9.25779 73.7195 8.81355C74.4633 9.07602 75.207 9.33848 76.2816 9.87021C75.3719 9.24419 74.3802 8.89424 73.3886 8.54429C74.3802 8.89424 75.4549 9.42597 76.7775 10.0452C77.0254 10.1327 77.0254 10.1327 76.7775 10.0452ZM76.4477 10.2338L76.1998 10.1463V10.1463V10.1463C76.0627 10.1485 75.9277 10.1496 75.7947 10.1499C75.3369 10.1511 75.3291 10.2029 75.7869 10.1531V10.1531V10.1531C75.4392 10.1909 75.4453 10.3045 75.793 10.2668C75.8736 10.2581 75.9542 10.2493 76.0349 10.2406C75.2092 10.2542 74.4666 10.4495 73.724 10.6449C74.0159 10.6131 74.2863 10.5737 74.5436 10.5336C74.7019 10.5089 74.7077 10.6036 74.5496 10.6313V10.6313C75.1273 10.5302 75.7051 10.4291 76.2828 10.328V10.328C76.4477 10.2338 76.4477 10.2338 76.4477 10.2338ZM76.9457 11.3244C76.6159 11.513 76.3691 11.8833 75.8744 12.1662C76.2042 11.9776 76.451 11.6073 76.9457 11.3244C76.451 11.6073 75.8744 12.1662 75.3797 12.449C75.8744 12.1662 76.2861 11.7015 76.7808 11.4187C76.1212 11.7958 75.4616 12.173 74.885 12.7319C75.2967 12.2673 75.9563 11.8901 76.6159 11.513C75.9563 11.8901 75.2967 12.2673 74.6371 12.6444C75.2967 12.2673 76.0382 11.6141 76.8627 11.1426C77.0276 11.0483 77.1106 11.2301 76.9457 11.3244ZM77.0287 11.5062V11.5062C76.9199 11.5684 76.8224 11.6526 76.7431 11.7549C76.1447 12.5271 75.6914 13.2163 75.3831 13.8225C75.4095 13.7707 75.4369 13.7183 75.4652 13.6654C75.6216 13.3738 75.6981 13.4331 75.548 13.7283V13.7283C75.8767 13.0819 76.3703 12.3412 76.6989 11.6947C76.3703 12.3412 76.2065 12.8933 75.9597 13.2636C76.1133 13.0331 76.2986 12.6956 76.496 12.3177C76.5409 12.2316 76.563 12.3535 76.5213 12.4413V12.4413C76.4821 12.5237 76.5431 12.4412 76.5708 12.3541C76.6473 12.1129 76.7026 11.8641 76.8367 11.6432C76.8539 11.6147 76.8784 11.5922 76.9062 11.5763L77.0287 11.5062ZM77.4404 11.0415C77.4502 11.036 77.4594 11.0307 77.4681 11.0257C77.635 10.9303 77.7876 10.9981 77.9568 11.0689V11.0689C78.0229 11.0966 78.1222 11.1566 78.1605 11.2202C78.8372 12.343 79.3453 13.4089 79.7318 14.5209C79.8413 14.8359 80.183 14.9751 80.47 14.811C80.4763 14.8074 80.4824 14.8039 80.4885 14.8004C80.5532 14.7634 80.6217 14.6907 80.6679 14.629V14.629C80.8995 14.3198 81.1455 13.8336 80.9794 13.5C80.5257 12.5885 80.1569 11.5195 79.7652 10.3548C79.6467 10.0025 79.4268 9.61683 79.0774 9.70064C78.9377 9.73413 78.7982 9.8077 78.6586 9.88666C78.6155 9.91104 78.5766 9.9437 78.5414 9.98028C78.4143 10.1123 78.2885 10.2035 78.1738 10.2754C77.9792 10.3973 77.3683 10.4283 77.2733 10.2202V10.2202C77.2061 10.0731 77.0311 9.98778 76.7476 9.7218C76.5974 9.58098 76.4362 9.45294 76.252 9.3679C75.4742 9.0089 74.4596 8.63332 73.6416 8.3942C73.3084 8.29677 72.9473 8.42913 73.2237 8.64492V8.64492C73.5923 8.93268 73.603 9.93191 73.1414 10.0366C73.0884 10.0486 73.0359 10.0614 72.9842 10.0748C72.6261 10.1678 72.6272 10.5638 72.9863 10.61C74.1984 10.7658 76.1318 10.6411 76.8848 10.4264C76.9248 10.415 76.962 10.3959 77.0026 10.388C77.0138 10.3858 77.0262 10.3843 77.0392 10.3843C77.167 10.3843 77.2588 10.5176 77.3768 10.5641C77.401 10.5736 77.4247 10.5834 77.4479 10.5935C77.6593 10.686 77.6282 10.9826 77.3956 10.9886V10.9886C77.2802 10.9916 77.1337 10.9877 77.0295 11.0472C76.9684 11.0822 76.89 11.127 76.7945 11.1817C76.7303 11.2184 76.6629 11.2474 76.5944 11.272C75.8802 11.5286 75.082 12.0997 74.5091 12.5933C74.3404 12.7386 74.2657 12.9779 74.4758 12.951V12.951C74.7953 12.9099 75.3998 13.4837 75.2346 13.788V13.788C75.1133 14.0113 75.3048 14.1216 75.4862 13.9508C76.0763 13.3951 76.7528 12.3047 77.0089 11.6116C77.0945 11.3799 77.2351 11.159 77.4404 11.0415V11.0415Z" fill="white"/>
</svg>
